<svg id="Layer_5" data-name="Layer 5" xmlns="http://www.w3.org/2000/svg" viewBox="0 0 830.2 622">
  <defs>
    <style>
      .cls-1{fill:#0f0f0e}.cls-2{fill:none}.cls-3{fill:#1e1c1c}.cls-4{fill:#151513}.cls-5{fill:#6f6258}.cls-6{fill:#5e4927}.cls-7{fill:#433e37}.cls-8{fill:#161513}.cls-9{fill:#542537}.cls-10{fill:#ae7d72}.cls-11{fill:#9e6a10}.cls-12{fill:#f1ad66}.cls-13{fill:#293f0c}.cls-14{fill:#332034}.cls-15{fill:#c9cbce}.cls-16{fill:#627e8b}.cls-17{fill:#492337}.cls-18{fill:#010c01}.cls-19{fill:#40515b}.cls-20{fill:#ee6c2f}.cls-21{fill:#f6af0c}.cls-24{fill:#325dbe}
    </style>
  </defs>
  <path class="cls-1" d="M289 175.8c7.7-14.7 15.6-29.3 22.8-44.2-1.2-16.5-4.6-34.5-.8-51.5 17.1-34 45-16.9 65 2.3 30.2-12.2 60.8-11.4 92-5.6 3.4 2.8 6.9 6 9-1.1 10.5-18.7 38.3-35.2 44.9-4.4h-3.2c-6.5-24.5-33.9-8.8-38.6 8.2 12 5.6 22 17 34.3 18q1.6 5 3 10.1C488.4 84.1 446 71.4 412.4 81.2l.8-2.9a.7.7 0 001-.1c-12.3 2.5-25.2 2.9-36.1 10.2l5.8-1.3-5.3 9.7C333 23.9 294.7 94 323 147.5l-9.3-2.3 2.2-6.8-2-1.5c-40.8 65.6-16 158.8 62.7 180.4 14 3.2 48.8 19.3 54.4 2l6.2-.1c3.5 9 12 2.2 17.7 1.6 7 1.4 10.2-2.6 13.1-7.6l1.5-.2c15.4 4.6 33.4-14.4 47.7-21.5l.3 2c-41.5 43.6-106.8 44.2-159.3 23l.1.1c-8.2-3.7-15.7-8.8-23.6-13.1l-2-1.7v.4-.4l-6.2-6a22.7 22.7 0 01-1.6-1.7c-33.4-31.4-38.4-75.1-35.8-118.3zm24.3-77.2l.2-.5-.5-.1z" transform="translate(-159.9 -38.8)"/>
  <path class="cls-1" d="M551 140.4l1.7.3.2 2c-15 16.8-13.5 33.2 7.4 37.7 0 13.4.8 26.9-.1 40.3l-5.9 7.5c.5-21 11.7-47.9-15.6-55.4 6.2-40.5 6.7-34.1-21-65 13.2-12.5 19-62.5-6.5-60.8l-2.8-5-5.3 5-4.2-3-23.3 19.3a27 27 0 00-1-7.3c15.2-8.9 29.9-24 48.5-13.6 29.8 42.2-22.4 54.8 28 98z" transform="translate(-159.9 -38.8)"/>
  <path class="cls-2" d="M311 80.1l-1.3 9.6M333.9 59l-11.5 6.5M356.8 65.2L338.5 59" transform="translate(-159.9 -38.8)"/>
  <path class="cls-3" d="M477 75.7c-2 7.2-5.6 4-9 1.1l4.3-10.5c2 2.8 3 6.3 4.8 9.4z" transform="translate(-159.9 -38.8)"/>
  <path class="cls-2" d="M528 48.2l-4.9-5.8" transform="translate(-159.9 -38.8)"/>
  <path class="cls-3" d="M472.2 64.7l3.3-4.6.1 3.2-2.9 3.4-.4-.4-.1-1.6zM289 175.8l-2.8.5c-25.8 32.5-37.8 72.8-44.4 113.5h.2c-4.2 35-7.4 73.3 4.3 106.8l1.2-1.9c-1.5-17.9-4.6-34.2-4.6-52.3l7.8 18.4c-9.8-60-2.6-130.5 39.2-177.3z" transform="translate(-159.9 -38.8)"/>
  <path class="cls-4" d="M221.8 588.5l-3.5-1.4c.3-24.4-38.3-34.2-32.4-62.4l19.7-8.5 3.8 8.3 2.5.2 1.6-9-2.9-7c5.5-13-1.3-28.3 1.6-41.6h3.2c-1.4 8.2-.8 16 4.5 23l-3 3.9c-1.2 25.5 1.4 45.5 26.3 57.6l-.7.6c-10.4-3.2-22.2-3.8-28.4-15.4-5.4-4.7-13.8.4-20 3.1 9 18 23 31.9 39.6 42.7l-10.8-1.8zm-29-51.8c5.5-2.6 12.3-2.7 11.6-10.6-6-3.1-18.5.8-11.5 10.6z" transform="translate(-159.9 -38.8)"/>
  <path class="cls-5" d="M210.6 508.8l2.9 6.9-27.6-16-19 24.9c17.3-3.2 19 13.2 24.5 23.8-13.3-1-6.8-26.3-31.5-24 14.2-12.5 26.6-24.2 20.4-44.7l2.7.2c3.7 15.4 13.1 23.6 27.6 28.9z" transform="translate(-159.9 -38.8)"/>
  <path class="cls-1" d="M215.4 467.1h-3.3c-6.4-11.2 26.3-34.4 34-28l10-2.8.3 3.3a3.4 3.4 0 00-1 1 55.2 55.2 0 00-40 26.5zM247.6 431.7V410c1.2 6.7 10.1 18.3 0 21.6z" transform="translate(-159.9 -38.8)"/>
  <path class="cls-3" d="M247.6 431.7c4-1 5.2-3.8 4.7-7.7l3.8 12.2-10 3 1.4-6 .4.4-.3-.5v-1.4z" transform="translate(-159.9 -38.8)"/>
  <path class="cls-6" d="M243.2 551.6c-25-12.1-27.5-32.1-26.3-57.6 15.2 9.4 30 19.9 48.6 18.6 13.7.2 16.2 11.5 24.2 16.7 2.5-23.6 48.4-11 65.3-10.5 88.2 22.9 82.3 41 84.7 123.3-49.2 28.4-108.7 16.6-162.8 14.4-3-31.1-.5-76.5-43.2-74a111 111 0 01-39.6-42.6c6.2-2.8 14.6-7.9 20-3.2 6.5 13 20.1 11.2 30.5 16.9zm19.8-33.7l-.3.6.3-.6z" transform="translate(-159.9 -38.8)"/>
  <path class="cls-7" d="M221.8 588.5l1-7.8 11 2v2.8l-11 8-1-5z" transform="translate(-159.9 -38.8)"/>
  <path class="cls-4" d="M233.8 585.5l-.1-3 3.2 1.5z" transform="translate(-159.9 -38.8)"/>
  <path class="cls-8" d="M554.2 139a20.2 20.2 0 0125.8 29.3c-2.5 4.6-4.4 8.5-9.6 10.7-11.3 5.1-6.1 21.2-9.7 31.3l-.4-30c26.8-7.5 19.2-49-7.4-37.6 0-.7-.2-1.4-.3-2z" transform="translate(-159.9 -38.8)"/>
  <path class="cls-9" d="M286.2 176.3l-1.2 1.4-1-3.5z" transform="translate(-159.9 -38.8)"/>
  <path class="cls-7" d="M517.7 107.9c27.8 30.8 27.2 24.4 21 65-9.5-44.7-68.3-74.4-104.5-39.8l-2.4-.1c-96.7 107.7 113.5 201 107 39.8 51.7 31.7-10.2 105.8-48 127.1-99 67-255.7-44.3-177.2-154.7l9.3 2.3c-11.5-25.8-15.3-54.4 3.2-78.1 24.7-9.5 39.6 8.4 52.4 27.4l5.3-9.7c15.5-4.3 31.4-3.5 44.3-11 29.3 7.5 64.5 6.5 89.4 31.5l.2.3zM359.9 91c-29.8-33.4-41.7 20.9-27.7 43.6 6 15.9 28.7-20.4 36.7-25.3 3.4-8-5.2-12.4-9-18.3zm8.1 95.5c-28.8-3-35 45.6-4.3 46.2 33.7 3.5 36.2-45.7 4.3-46.2zm3.3-25.7l8.6 8.2c8-5.8 4.9-10-.3-16zm156.6-34.1l-6.7-9c-6.8 4.9-5.2 8.6-.4 14z" transform="translate(-159.9 -38.8)"/>
  <path class="cls-10" d="M514.4 97.5c-12.3-1-22.2-12.4-34.3-18 4.7-17 32.1-32.6 38.6-8.2z" transform="translate(-159.9 -38.8)"/>
  <path class="cls-11" d="M435.3 331.9a158.8 158.8 0 0090.8-45.3c-19 29.1-56.6 55.9-93.4 52.4z" transform="translate(-159.9 -38.8)"/>
  <path class="cls-7" d="M472.7 66.7c7.8-8.6 17.7-15 26.3-22.6l4.2 3 5.2-5 2.9 5c24.5-2.2 17.4 39.5 11.9 54.6 4.1-39.4-17.6-69.6-46.1-26l-4.4-9z" transform="translate(-159.9 -38.8)"/>
  <path class="cls-3" d="M326.2 286.8c31.7 21.9 66.4 31.6 104.7 32.4-12.9 24-90.2-14.2-104.7-32.4zM469.4 313a211.8 211.8 0 0080.2-72.3c-11 33.2-45.3 72.3-80.2 72.3z" transform="translate(-159.9 -38.8)"/>
  <path class="cls-11" d="M334.8 303.5c7.8 4.5 15.3 9.3 23.5 13h-.2l5 2.7c18.6 13.8 43 9 63.2 17-3.8 3.6-9.2 5-13.7 7.8-28.1-9-58.9-16.1-77.8-40.5z" transform="translate(-159.9 -38.8)"/>
  <path class="cls-12" d="M292.3 239.1c-4-1.8-7.1-.8-9.3 3 2-9.8-7.2-11.4-11.5-17.1l-6.9 7.8c4-17.4 10.5-37.8 25.2-49.3l-1.5 36-6.1-12.8c-4.7 7.6-14.2 16.2-3 20.4 3.4 1.4 7.2 6.8 10.2-.5z" transform="translate(-159.9 -38.8)"/>
  <path class="cls-3" d="M426.3 336.1c-20-7.8-44.6-3.1-63.1-17 21.3 8.8 45 6.2 66.4 12.6a9.8 9.8 0 00-.1 1l-3.2 3.4zM437 319.2l31-6c-3 5-6.3 9-13.2 7.6-5.7.5-14.1 7.3-17.7-1.6z" transform="translate(-159.9 -38.8)"/>
  <path class="cls-13" d="M429.5 332.8a9.8 9.8 0 010-1h5.8l-2.7 7.2c-.6 9.9-11.8 19.8-5 29.7l-5.8 1.3c1.8-12.1 8.3-25.9 7.7-37.2z" transform="translate(-159.9 -38.8)"/>
  <path class="cls-14" d="M521.9 71.3c-.5 10.2.5 20.3 1.3 30.4l-5.5 6.2-.2-.3c-5.5-11.8-.1-24.1 1.2-36.4z" transform="translate(-159.9 -38.8)"/>
  <path class="cls-15" d="M412.3 81.2c-11.5 2.4-23 4.7-34.3 7.2 10.6-7.2 23.1-7.5 35-10l-.8 2.8z" transform="translate(-159.9 -38.8)"/>
  <path class="cls-11" d="M317.6 300.4l-6.6-23L325 294l-1.5 4a51.9 51.9 0 01-4.6 3.5z" transform="translate(-159.9 -38.8)"/>
  <path class="cls-8" d="M517.1 291.5l23-27.8 2 .2c-7.7 10.3-13.5 22.4-24.7 29.5z" transform="translate(-159.9 -38.8)"/>
  <path class="cls-16" d="M313.6 145.2c-5 8.6-6.6 21-14 27.3 4.7-11.8 9.1-23.8 14.2-35.6l2 1.5-2.2 6.8z" transform="translate(-159.9 -38.8)"/>
  <path class="cls-5" d="M455.6 80.3c-9.1-1.3-21 3.5-27.5-4.2z" transform="translate(-159.9 -38.8)"/>
  <path class="cls-15" d="M326 69.5l-9 15.1zM344.4 66.5L326 69.4c5.3-5.6 11.3-7.4 18.3-3z" transform="translate(-159.9 -38.8)"/>
  <path class="cls-3" d="M358.3 316.6l-7.4-3.6z" transform="translate(-159.9 -38.8)"/>
  <path class="cls-11" d="M332.7 301.8l-6.3-6z" transform="translate(-159.9 -38.8)"/>
  <path class="cls-3" d="M363.1 319.1l-5-2.6z" transform="translate(-159.9 -38.8)"/>
  <path class="cls-7" d="M153.4 59.7l-.2-.5h.4l-.2.5z"/>
  <path class="cls-7" d="M413 78.3l1.1-.1a.7.7 0 01-1 .1z" transform="translate(-159.9 -38.8)"/>
  <path class="cls-11" d="M334.6 303.4l-2-1.6zM326.4 295.8z" transform="translate(-159.9 -38.8)"/>
  <path class="cls-10" d="M573.4 146.3c8.7 13 3 27.7-13 34-17.8-4.4-24.5-17.1-9.7-34.2 7.5-3.5 15.1-1.8 22.7.3z" transform="translate(-159.9 -38.8)"/>
  <path class="cls-15" d="M573.4 146.3c-7.6-2-15.1-3.7-22.8-.2l2.3-3.3c7.5-2.7 14.7-3.7 20.5 3.5z" transform="translate(-159.9 -38.8)"/>
  <path class="cls-8" d="M553.8 231.1c.2-4.3 4.1-7 6.4-10.4l-2.9 12.4-1.3.1z" transform="translate(-159.9 -38.8)"/>
  <path class="cls-15" d="M550.6 146.2l-2.2 3.2z" transform="translate(-159.9 -38.8)"/>
  <path class="cls-3" d="M685.8 151c15.9 1.4 5.3-5 14.6-10.9 18-2.2 28.1 15.8 39.8 27.4 2 5.4 13 7.1 10.4 13.5-23.2 3.8.4 17.4-22.4 16-3.3 0-10 7.1-9.4 9 2.5 7-2.3 7.7-6 10a15.8 15.8 0 01-7.4-8.1c12.7-10.1 24.3-20.8 37-31.5-11.2-11-21.7-20.6-31.7-32-15.9 14-26.4 28-44 40.1 11.3 6.3 19.8 13.2 31 17.4-3.6 1.5-9.8 10.5-11 1.8-2.3-1.1-4.4-3-6.9-3.3-4.5-6-32.5-21.2-11.7-23-6.4-15.6 4-10.2 12.5-14.3-1.4-5.2-1.3-11.1 5.2-12.1z" transform="translate(-159.9 -38.8)"/>
  <path class="cls-17" d="M580.3 229.8c7.2 7 18.6-.4 26.3 5.9-15.8-1.8-31.3-2.2-46.3 5l-4.3-7.5c8.4 1.8 16.1-1.2 24.3-3.4z" transform="translate(-159.9 -38.8)"/>
  <path class="cls-8" d="M719 240.6l-1.5-1.5z" transform="translate(-159.9 -38.8)"/>
  <path class="cls-4" d="M614.2 456.5c-2.6-13-9.6-24-15.5-35.6h-4.2c22.2 43.2 32.2 99.8 9.2 143.4 27-21 14.3-76 10.5-107.8z" transform="translate(-159.9 -38.8)"/>
  <path class="cls-18" d="M605 559.5a82.4 82.4 0 01-4.4 12.5l-.4-.3.2-12z" transform="translate(-159.9 -38.8)"/>
  <path class="cls-11" d="M256.1 436.2l-3.8-12.2-.1-.2a612 612 0 01-9.3-81.4c2.8 12.2 13 19.2 10.9 30.4 9.2 22 22 40.3 41.8 54 17.7 17.3 46.1 18.8 70 22.8l-80.1 71a408.8 408.8 0 01-29.4-84.4zm20.2 38.9c13.8 38.8 38.6.2 57.4-15 3.5-3.4 1-6.9-3-8.2-31.6-5.3-52.5-29.2-74-50-5.8 24.5 14.7 49.1 19.6 73.2z" transform="translate(-159.9 -38.8)"/>
  <path class="cls-15" d="M267.3 217c1 18-14.2 32.3-12.5 51l-4.1-3.5z" transform="translate(-159.9 -38.8)"/>
  <path class="cls-12" d="M250.7 264.4l4.1 3.6-2.4 12.6-4.6-3.6z" transform="translate(-159.9 -38.8)"/>
  <path class="cls-10" d="M215.4 467.1l5.9-8 1.7 4.9-3.5 2.5 1 1c2-3.3 4.7-5.8 7.5-8.5-1.9 10.6-5.5 23.8 5.7 31.3l1.9 4.2 2.7-2.1-4.5-2.2c-11-16.3-3.3-46.9 20.1-41.6l.3-.1c-8.4 12.1-17 26.9-5 40.5-3.7-23-2.7-27.8 6.8-34.6 6 18.2 12.3 36.4 18.5 54.6a.5.5 0 00-.7.2c-24.3-.8-65-9.6-58.4-42zm38.6 25.4l-1.7 1.8 7.2 6.3 1.6-1.7-7.1-6.4z" transform="translate(-159.9 -38.8)"/>
  <path class="cls-8" d="M219.9 490.1c14.8 15 34.1 17.8 53.9 19 1.5-.7 3.6-.2 5.3-.5l6.4 12 80.1-71-36.4-5.6.1-2c9-1.1 19.7 7.8 26.7.3 6.9 6 13.8 2 20.6.1 2-5.6 2.2-12 5-17h1.4c.6 7.2-1 14.4-1.4 21.5-25.8 8-43 33.9-63.2 51.2v1.1l-14.9 10 1 2.1 26 1.7.2 3.3c-14.2 2.6-40-8.1-41 13-8-5.3-10.6-16.5-24.2-16.8-18.6 1.3-33.4-9.2-48.6-18.6zM185.9 535c-4.5-5.4-7.1-13.5-19-10.5l19-24.9 27.6 16-1.6 9-2.5-.1-3.8-8.3-19.7 8.5z" transform="translate(-159.9 -38.8)"/>
  <path class="cls-10" d="M192.9 536.7c-7-9.8 5.6-13.7 11.5-10.6.7 7.9-6.1 8-11.5 10.6z" transform="translate(-159.9 -38.8)"/>
  <path class="cls-13" d="M279.1 508.7l-4.6.2c-6.8-20.1-14-40.2-20.4-60.4-.9-2-.3-4.8-.8-7.3 1-.5 2.4-.3 2.8-1.4 6.1 22.4 15.9 46.2 23 68.9z" transform="translate(-159.9 -38.8)"/>
  <path class="cls-15" d="M253.3 441.2l.6 7.4c-13-3.2-22.3 7.6-31 15.3v.1l-1.6-4.8a50.8 50.8 0 0132-18z" transform="translate(-159.9 -38.8)"/>
  <path class="cls-3" d="M256.1 439.8a1.2 1.2 0 01-.8.8 2.4 2.4 0 01.8-.8zM247.6 410l1.6-4.5 3 18.3z" transform="translate(-159.9 -38.8)"/>
  <path class="cls-1" d="M247.7 433l.3.5c-.2 0-.8-.2-.3-.4z" transform="translate(-159.9 -38.8)"/>
  <path class="cls-7" d="M594 588.5c-6.8 26.7-37.9 69.4-61.7 32.8 6.5-14.3 3.3-28.3 3.9-44.6l62-4.7q-2 8.3-4.2 16.5z" transform="translate(-159.9 -38.8)"/>
  <path class="cls-14" d="M598.2 572l-62 4.6c-.6 16.3 2.6 30.4-4 44.7-7.6-7.3-9.3-25.5-3.5-36 2.3-4.2 6.3-8.4 2-13.7a2.1 2.1 0 01.2-1.3c22.7-4.4 49.8 0 69.5-10.7l-.2 12z" transform="translate(-159.9 -38.8)"/>
  <path class="cls-1" d="M330.8 516.4l-.3-3.4v.1h2.7l.2-.3c33 1.6 67.9 14.7 94.8 34a364 364 0 01-.3 3.4l-.5.6a188.3 188.3 0 00-96.6-34.4z" transform="translate(-159.9 -38.8)"/>
  <path class="cls-4" d="M243.2 551.6l1.4 2-2-1.4z" transform="translate(-159.9 -38.8)"/>
  <path class="cls-8" d="M263 517.9l-.3.6.3-.6zM263 518z" transform="translate(-159.9 -38.8)"/>
  <path class="cls-19" d="M428.2 546.8c-29.9-24-70.4-27-103.4-46 17.8-15 40-48 65-46.9 20.3 2.6 41.4-4.8 61.9-.8 16 .7 34.4 13.9 48.8 5.2 21 18 30.8 47.7 34 75-33.5 6.9-70.2-.4-102 15.2l-3-.2zm61.2-81c-7.6-1-11.3 7-17.9 8.6-.6 14.5 5.8 24.2 17.5 32.3l3.7-5c10.5-2.1 15.8-13.1 21.8-20.2-7.7-8.3-12.1-19-25.1-15.7z" transform="translate(-159.9 -38.8)"/>
  <path class="cls-16" d="M531 570.3c-7 26.6-63 7.3-85.2 12.4l-12.4-29.5c32.3-13.7 67-13.6 102-13.9-1.6 10.6-3.2 20.7-4.5 31z" transform="translate(-159.9 -38.8)"/>
  <path class="cls-7" d="M514 587c.8 32.4-23.9 60.7-58.3 61.6-6.8-16.2-14.3-36.9-1.6-51.6 6.6-15.5 52.7 5.1 60-10z" transform="translate(-159.9 -38.8)"/>
  <path class="cls-14" d="M514 587c-7.2 15.2-53.3-5.5-59.9 10-12.7 14.8-5.2 35.5 1.6 51.7-22.4-10.7-11.5-38.6-12.1-58.3 18.4-11 48.3-.6 70.5-3.3z" transform="translate(-159.9 -38.8)"/>
  <path class="cls-3" d="M531.5 565.7l3.8-26.4c-35 .3-69.6.2-102 13.9l-.8-4.7c33.2-15.3 71.2-9.4 106.2-15.2l-2.8 32.3zM428.2 546.8l1.3 1.5-1.6 1.9.3-3.4z" transform="translate(-159.9 -38.8)"/>
  <path class="cls-10" d="M369 109.4c-8 4.9-30.9 41.1-36.8 25.3C316.8 96 342 62 368.9 109.4zm-29.7 25.2c-.6.3-.6.6 0 1 .5-.3.6-.6 0-1z" transform="translate(-159.9 -38.8)"/>
  <path class="cls-14" d="M535.6 206.8c-1 56.1-91 73.7-113.9 23 33.3 37.3 97.2 24.8 114-23z" transform="translate(-159.9 -38.8)"/>
  <path class="cls-1" d="M535.6 206.8c-13.5 41-73.7 62.4-104.9 29.4l1.3-1.3c65.8 55.3 142.2-53.2 75.9-102l3.2-1.7c15.4 9.8 21.6 25.7 27.6 41.6l-3 34z" transform="translate(-159.9 -38.8)"/>
  <path class="cls-8" d="M368 186.6c32 .6 29.4 49.7-4.3 46.2-30.7-.6-24.6-49.1 4.3-46.2zm8.7 5c-22.6-13.5-43 30-18 37.7 16.7 4.2 36.1-13.4 24.7-30.6zM431.8 133l2.4.1 2.2 1.6c-21.5 19.2-31.7 50.7-20.6 78h-2c-16.2-26.6-3.5-60.5 18-79.8z" transform="translate(-159.9 -38.8)"/>
  <path class="cls-3" d="M436.4 134.7l-2.2-1.6c20-20.4 55.4-18.8 77-2l-3.3 1.7c-23.6-11.5-49.4-15-71.5 2z" transform="translate(-159.9 -38.8)"/>
  <path class="cls-8" d="M355.2 91.5c-19.5-19.1-30.4 10.3-27.5 27.4-10.6-22.2 14-54.8 32.2-27.8z" transform="translate(-159.9 -38.8)"/>
  <path class="cls-1" d="M371.2 161l8.4-8c5.1 6.1 8.3 10.3.3 16zM556 233.2l4.3 7.5c-9.2 4.8-13.2 14.7-18.2 23.2l-2-.2 9.4-23c2.2-2.8 2.8-6.4 4.2-9.5z" transform="translate(-159.9 -38.8)"/>
  <path class="cls-18" d="M527.9 126.8l-7 5c-4.8-5.4-6.4-9.1.3-14z" transform="translate(-159.9 -38.8)"/>
  <path class="cls-14" d="M355.2 91.5l4.7-.4c3.8 6 12.4 10.3 9 18.3z" transform="translate(-159.9 -38.8)"/>
  <path class="cls-1" d="M430.7 236.2c-4-3-8.7-5.5-12-9.5l1.5-4.7q6 6.4 11.8 12.9z" transform="translate(-159.9 -38.8)"/>
  <path class="cls-14" d="M420.2 222l-1.5 4.7-4.7-9.2 3.3-.1h-.2l3.1 4.7z" transform="translate(-159.9 -38.8)"/>
  <path class="cls-1" d="M417.3 217.4l-3.3.1-.3-4.7h2z" transform="translate(-159.9 -38.8)"/>
  <path class="cls-3" d="M431.8 133zM550.9 238.8l-1.3 1.8z" transform="translate(-159.9 -38.8)"/>
  <path class="cls-11" d="M352.8 400c2.4-9.4 2.7-19.6 10-26.8l3.4 1.4c-.6 8.3-8.7 19.2-3.4 26l-2.7 11c-7.6 6.5-6.4 21.5-4 30.8-3.7 5.4-8.2 2.7-12.6 1.3 2.8-14.6 6.2-29 9.3-43.7z" transform="translate(-159.9 -38.8)"/>
  <path class="cls-3" d="M279.8 410c5.5 5.4 11.5 10.3 15.8 16.8a117.2 117.2 0 01-41.8-54l4.5 1.7c5.4 12.8 13.5 24.2 21.4 35.5zM325 439.5l4.3 2.6-.1 2c-11-6-26-7.2-33.6-17.4 9.6 4.9 19 9.9 29.4 12.8z" transform="translate(-159.9 -38.8)"/>
  <path class="cls-15" d="M381 375.8a3 3 0 01-.5 2.3c-15.2-.9-25.7-9.7-37.2-18.7a62 62 0 01-16.5-17c-1.7-2.7-4.6-5.2-5.2-8.4 1-1.4 2.3-1.7 1.7-3.8 9 15 21.6 28.2 36.9 36.9 6 5.3 17 1.1 20.9 8.7z" transform="translate(-159.9 -38.8)"/>
  <path class="cls-15" d="M335.7 352.9l-.3-.2a3 3 0 00.3.2z" transform="translate(-159.9 -38.8)"/>
  <path class="cls-12" d="M249 288l3.5 1.7-.6 1.4-3.7-1.5.8-1.6zM283 242.1z" transform="translate(-159.9 -38.8)"/>
  <path class="cls-20" d="M542.1 264c4-7 7.3-14.1 13-19.8 16.4-5.9 35.5-4.1 51.5-8.5l7.5 3.1c-31.7 21.7-53.2 68.7-90.7 74.8-48.4 2.5-3 31.5-95.7 55.1-7-9.9 4.3-19.8 5-29.7 36.8 3.5 74.4-23.2 93.4-52.4l.1-.1 16-22.6z" transform="translate(-159.9 -38.8)"/>
  <path class="cls-3" d="M355.5 343.8l.1.2-.2-.2zM424.8 337.7h-.1zM424.8 337.7l1.5-1.6-1.5 1.6z" transform="translate(-159.9 -38.8)"/>
  <path class="cls-3" d="M393.4 355c10.7-2 17.4-11.5 27.3-15.5 3.5-1.4 6-4.7 9.2-6.9-5.6 6.8-10.7 15.4-18.4 19.8-20.5 11.4-43 8.8-58.4-9.3-17.1-8.1-20.4-29.8-33.4-42.1 1.5-.8 3.7-4.6 4.5-1.4 3.4 7.1 9.2 12.3 14.3 18.1 3.8 4.5 4 11.2 7.5 15.8a59.3 59.3 0 0030.7 20.4 31 31 0 0016.7 1.1zM355.5 343.8h-.2z" transform="translate(-159.9 -38.8)"/>
  <path class="cls-21" d="M412.6 344c-28.1-8.9-58.9-16.1-77.8-40.5h-.2l-1.9-1.6-6.3-6a20.8 20.8 0 01-1.5-1.7l-1.5 4c5 12.8 18.1 19.6 20.9 33.4a59.8 59.8 0 0042.8 24.3c1.7-2 3.1-4.9 5.3-5.7-2.2.8-3.6 3.7-5.3 5.7 6.3-.6 12.4-1.4 17.7-5l-4.3-2.9 4.3 2.9z" transform="translate(-159.9 -38.8)"/>
  <path class="cls-11" d="M320 302.1c14.3 11.3 16.7 35.6 35.5 41.7 18.4 28.2 59.3 14.4 74-11 .7 11.3-5.9 25-7.7 37.1l-8 1.3c6.5-26.3-45.8 11.5-74.2-33l-.6.2-2.7-1c-5.5-11.7-14.2-22.3-16.3-35.3z" transform="translate(-159.9 -38.8)"/>
  <path class="cls-4" d="M413.9 371.3c24.4-7.2 58.5-13.2 75.6-30.8 3.5-18 16.4-28.4 33.9-27a36 36 0 0131 50.1c-8.4 20-34.2 24.7-44.6 43.7l-2.3 1.1c-6.2-5.7 7.8-11.8 10-17.2 6.9-15 31.8-38.4 5.6-45.4-9.4.5-18.4-5.6-23 4.6-5.6-5.5-8.5 0-12 2.6l-.9-.2.5.5c-1.5 1.6-3.4 4.8-4.5 4.5-9.3-4-11.4 6.6-18.2 8-5-5.8-7.6 1.5-11.3 2a153.7 153.7 0 01-58.5 9.4L391 387l-2.5-3.2-.7-6.7-3.8-3.5a212.4 212.4 0 0129.9-2.4zM520 339c23.3 2.8 22.6 26.5 10.1 41.7 21.6-8.7 23.4-28.8 17.7-47.7-3.8-3.9-5.6-10-12.2-10.8-16-11.5-35.1-1.8-40.9 16.8h25.3zm-23.8 3l-.4-.5c-.4.4-1.2.6-.5 1.3z" transform="translate(-159.9 -38.8)"/>
  <path class="cls-11" d="M432.1 339.6v0zM527.4 284.9l-1.2 1.6z" transform="translate(-159.9 -38.8)"/>
  <path class="cls-20" d="M538.6 381a34.4 34.4 0 0017.5-21.8c33-22.5 60.7-54.4 90.3-81.8 12.8 37-16 70.4-47.9 84.5-28 44-53.3 110.7-120.3 89.9 26.3-17.7 49.3-40.6 60.4-70.8z" transform="translate(-159.9 -38.8)"/>
  <path class="cls-12" d="M555.8 342.2c-2.7-10.2-5.4-20.5-17-24.6 1.8-2.2 3.2-5 5.3-7l-.2-.4c39.8-28 67-65 103.2-99.7l7 18.4c-8.8 4.4-9.7 9.6-2.6 14.9-11.6 43.2-59.3 63.5-85.2 98.4l-8.6 5.3-2-5.3z" transform="translate(-159.9 -38.8)"/>
  <path class="cls-7" d="M709.3 278.5c-6.7-9-21.5-6-28.7-15.1-5.5-3.5-19.8-39.8-23.7-20.7-8 22.8-5 47.4-5.5 70.8-1.3 5.5-1.7 13.6 1.3 18.5 18.2 12.2 43.5-24.4 53.4-37.3 5.1-3.8 6-10.8 3.2-16.2z" transform="translate(-159.9 -38.8)"/>
  <path class="cls-3" d="M651 328.4c17.2 20.6 49.5-25.6 60.1-40.3-4.3 38-40.6 60.7-77 60.4-3.3-8.8 12-13.5 16.9-20.1z" transform="translate(-159.9 -38.8)"/>
  <path class="cls-11" d="M646.4 277.4c-29.6 27.4-57.3 59.3-90.3 81.8.5-7.3 5.7-11.9 10.3-17 27.1-22.2 52-46.8 77.4-71a5.8 5.8 0 001 .8c.6 1.8 2 3.4 1.6 5.4z" transform="translate(-159.9 -38.8)"/>
  <path class="cls-1" d="M634.1 348.5c38.3 1 82-28.4 75.8-70.3l3 1 4.5 9C709 343 651.6 349.8 608 357.5l13.9-10.8z" transform="translate(-159.9 -38.8)"/>
  <path class="cls-3" d="M643.7 271.3c-21.7 20-42 41.7-65 60.2l-1.5-1.5 66.3-63 .2 4.3z" transform="translate(-159.9 -38.8)"/>
  <path class="cls-15" d="M597 262.1C579.8 277.7 566 298 545.3 309c17.2-15.5 32.8-33.7 51.8-46.9z" transform="translate(-159.9 -38.8)"/>
  <path class="cls-17" d="M568.2 287c-8 8-17.1 15.7-24.6 24l-4.8 6.7-15.4-4.1c19.5 4.1 28.2-19.3 42.9-28.2z" transform="translate(-159.9 -38.8)"/>
  <path class="cls-11" d="M651.5 243.8c-7.1-5.2-6.2-10.5 2.6-15z" transform="translate(-159.9 -38.8)"/>
  <path class="cls-3" d="M646.5 275.8z" transform="translate(-159.9 -38.8)"/>
  <path class="cls-1" d="M645.1 319.2l2 1.2-.8.9-1.2-2z" transform="translate(-159.9 -38.8)"/>
  <path class="cls-20" d="M691.5 199.5l-24.9-15c16.1-11.6 30-19.7 43-34.8l11.4 5.8 21.4 20.9-30 25.9-13.4-7.6c.2-1.9 1.7-3.1 2.8-4.6l-1-.7a26.9 26.9 0 01-4.9 5h.1l-4.7 4.4zm9-31.3c-4.2 3.7-8.7 7-12.6 11.1l1 .6.8-2.5a165.7 165.7 0 0018.4-17.1l-1.6-1.2z" transform="translate(-159.9 -38.8)"/>
  <path class="cls-20" d="M711.3 179l-.4.4.4-.4 1.9-2a11.8 11.8 0 01-1.9 2z" transform="translate(-159.9 -38.8)"/>
  <path class="cls-7" d="M711.6 236.3c-17.3-4.5-23.7-19.5-32.6-33l7.6.4c.7 6 3.5 3.6 6.2 1.5 8-.7 9 7.6 13.6 11.2l5.2 19.9z" transform="translate(-159.9 -38.8)"/>
  <path class="cls-8" d="M673.5 203.7l-.9-1.5h.1l.8 1.5z" transform="translate(-159.9 -38.8)"/>
  <path class="cls-8" d="M726.1 242.9c-13.2-1.6-11.6-16.8-13.3-27l-4.5-3-1.9 3.5 5.2 19.9c-17.3-4.5-23.7-19.5-32.6-33l7.6.4c-2.3-1.1-4.4-3-6.9-3.3-14.2-14-35.3-22.1-54.7-26l-1.6 4.8a161.3 161.3 0 0018 5.7 75 75 0 018 2.4 63.7 63.7 0 017.4 3.6 66.1 66.1 0 0113.8 10.3c1.8 1.7 3.8 3.5 4.5 5.8a25.2 25.2 0 003.2 5.7 98.8 98.8 0 0018.4 21.6c5.8 5 13.3 10.4 21.3 10.7a13.8 13.8 0 008.1-2.1z" transform="translate(-159.9 -38.8)"/>
  <path class="cls-8" d="M679.8 200.4a14.5 14.5 0 00-3.6-3.8c1.5 1 3 2 3.6 3.8z" transform="translate(-159.9 -38.8)"/>
  <path class="cls-11" d="M699 194.7l13.5 7.6-7 5.6c-4.3-3.5-8.6-6.9-14-8.4l-.2-.7 4.7-4.4z" transform="translate(-159.9 -38.8)"/>
  <path class="cls-12" d="M702.5 156.3c-6.7 6-11.1 15.6-20.7 16.5l18.4-18.7z" transform="translate(-159.9 -38.8)"/>
  <path class="cls-15" d="M702.5 156.3l-2.3-2.2 10.5-9.7 10.1 11-11.2-5.7z" transform="translate(-159.9 -38.8)"/>
  <path class="cls-8" d="M708.3 213c-.7 1-1.3 2.2-1.9 3.4-4.6-3.6-5.5-11.9-13.6-11.2 1.6-1 3.2-2.2 4.7-3.3 4.3 3.1 8.8 6 10.8 11z" transform="translate(-159.9 -38.8)"/>
  <path class="cls-15" d="M726.6 161l-5.6-5.5zM605.8 236c-15.8 3.7-34.6 2.6-50.8 8.2 14.9-10.3 33.4-11.4 50.8-8.1z" transform="translate(-159.9 -38.8)"/>
  <path class="cls-1" d="M579 404.5l3-5.4 16.7 21.8h-4.2c-3.8-7-8-13-15.4-16.4z" transform="translate(-159.9 -38.8)"/>
  <path class="cls-19" d="M579 404.5c31.4 25.7 38.9 75.5 36.6 114.6-25.6 2.2-51.2 3.3-76.8 4.9l5.5-3.6c-1.4-2.9-4.3-6.2-3.6-7.4 5.7-9.3-6.8-16.7-2.5-25.7-4.2-3-11.8-7.7-5.6-14 .5-.7-1-3.3-1.6-4.8l1.7-6.1c20.2-14.1 31-38.7 46.4-57.9z" transform="translate(-159.9 -38.8)"/>
  <path class="cls-16" d="M535.9 565.6c1-12.8 2.4-25.5 3-38.3 25.7.8 51.3-3.4 77-4.8-3.5 12.4-.7 28-11 37-2.4 0-5 0-7.2.9-20.7.4-41.2 3.7-61.8 5.2z" transform="translate(-159.9 -38.8)"/>
  <path class="cls-3" d="M615.8 522.5c-25.6 1.4-51.2 5.6-76.8 4.8l-1.5-3.4c26-1 52-2.8 78-4.8l.3 3.4z" transform="translate(-159.9 -38.8)"/>
  <path class="cls-21" d="M287.3 492.4c5.6 8.4 60.3-36.4 43.4-40.5-31.6-5.3-52.5-29.2-74-50-3.1 30 16.4 63.9 30.6 90.5z" transform="translate(-159.9 -38.8)"/>
  <path class="cls-12" d="M254.1 448.4l1.9 6c-9.5 6.8-10.5 11.5-6.8 34.6-12-13.7-3.4-28.4 5-40.6zM228 459l5.2-3.9c-4.7 11.8-6.8 23.5.5 35-11.2-7.3-7.6-20.6-5.8-31.1zM254 492.5l7.1 6.4-1.6 1.7-7.2-6.3zM233.7 490.2l4.5 2.1-2.7 2.2-1.8-4.3z" transform="translate(-159.9 -38.8)"/>
  <path class="cls-15" d="M222.9 464l-2.4 3.5-1-1 3.5-2.5z" transform="translate(-159.9 -38.8)"/>
  <path class="cls-13" d="M273.8 509.1l-3-.2z" transform="translate(-159.9 -38.8)"/>
  <path class="cls-14" d="M500.5 458.3c-14.3 8.7-33-4.5-48.8-5.2-20.5-4-41.6 3.4-61.8.8-25.1-1-47.2 31.9-65.1 46.9l-5.2-1.2h.4l-1.6-1.4c41.9-48.9 63.3-54 125.4-54.4 19.3 1.7 35.4 17.4 56.7 14.5zM391 387l4.3-9.9 6.5.6-10.3 42.3c5 6.4 6.5 9.5 8.5 16.4l-9.3 8.9H388c-.4-5.5 5.4-12.8-4.7-15.3l-.2-4.5c7.4-11.8 5.9-25.4 7.9-38.4z" transform="translate(-159.9 -38.8)"/>
  <path class="cls-10" d="M333.8 512.9l-.4-.2c-.5.8-2 .2-2.8.4-8.7-.7-17.5-1.1-26.1-1.7l-1-2.2 15-9.9 1.5.3h-.4c6.8 3.6 13.7 6.7 18 13.4a16.7 16.7 0 00-3.8-.1z" transform="translate(-159.9 -38.8)"/>
  <path class="cls-3" d="M391 387c-2 13-.4 26.7-8 38.5h-1.3c-.2-14 6.4-27.6 6.8-41.6zM383.3 430c10 2.5 4.3 9.8 4.6 15.2l-1.5 1.8h-4.9l1.8-17z" transform="translate(-159.9 -38.8)"/>
  <path class="cls-21" d="M381.3 422c0 1.2.2 2.3.3 3.4l-1.5 2.5 1.2-5.8z" transform="translate(-159.9 -38.8)"/>
  <path class="cls-4" d="M320 499.6l-1.5-.3v-1.1z" transform="translate(-159.9 -38.8)"/>
  <path class="cls-1" d="M535.9 565.6c20.6-1.5 41.2-4.8 61.8-5.2l.4.2c-18.9 9.7-45.6 5.3-67.2 9.7l.6-4.6z" transform="translate(-159.9 -38.8)"/>
  <path class="cls-18" d="M598.1 560.6l-.4-.2a1.6 1.6 0 01.9-.2z" transform="translate(-159.9 -38.8)"/>
  <path class="cls-4" d="M337.6 513c-4.3-6.7-11.2-9.8-18-13.4 11.2 2.5 21 9.1 31.6 13.5z" transform="translate(-159.9 -38.8)"/>
  <path class="cls-8" d="M330.6 513.1h2.6zM333.8 512.9l1.6-.1z" transform="translate(-159.9 -38.8)"/>
  <path class="cls-1" d="M598.5 361.8c-25.7 31-30.1 76.5-75 89.9-23.6 6.3-45.8 1.8-67.7-9 8.8-4.8 15.7-8.2 23-12.5 3.2-1.8 6.6-3.5 9.4-6h-.1l3-4.8-.3-.2c-18.2 10.2-38.9 15.5-56.8 26.2 23.5-7 41.8 16.8 66.4 13 21 18 30.9 47.6 34.1 74.8l4.1.1c-.6-28-13.9-52-29.8-74.7l17.2-4 2.4-2.7c43-14.7 51.2-60.8 76.5-92.6-2 .9-4.6 1.2-6.4 2.5z" transform="translate(-159.9 -38.8)"/>
  <path class="cls-11" d="M501.5 498.2l-8.8 3.6-1.6-8.5-3 5.5c-11-2.5-16.2-13.5-7.1-21.6-3.5-6.9 8.4-8 13.3-8.4 3.5 4.2 14.8 6.3 8.3 12.2l2.2-.1c1.8 6.5 1 12-3.3 17.3z" transform="translate(-159.9 -38.8)"/>
  <path d="M494.3 468.8c-4.9.4-16.9 1.5-13.3 8.4-9.1 8-3.8 19.2 7 21.6l3.1-5.5 1.6 8.5-3.7 5c-11.7-8.1-18-17.8-17.5-32.3 6.6-1.7 10.3-9.7 17.9-8.7z" transform="translate(-159.9 -38.8)" fill="#1b310b"/>
  <path class="cls-1" d="M494.3 468.8l-5-3c13-3.2 17.5 7.4 25.2 15.8l-13 16.6c4.2-5.3 5.1-10.8 3.4-17.3l-2.3.1c6.5-6-4.8-8-8.3-12.2z" transform="translate(-159.9 -38.8)"/>
  <path class="cls-7" d="M339.3 134.6c.6.4.5.7 0 1-.6-.4-.6-.7 0-1z" transform="translate(-159.9 -38.8)"/>
  <path class="cls-5" d="M417.3 217.4c-11.3-25.3-5.8-52.2 10.3-74h1.8l-.3-1.6.2-.2c15.8-8.2 33-17 52.6-18.2 114.1 28.2 13.3 192-61.7 98.7l-3-4.7zm55.2-3c8.4-3 22-2.3 24.8-12.2 31.5-29.6 0-32-23.7-14.2-4.5-7.7-2.2-15.1-2.7-23.8 8.4-2.6 18.7-15.2 5.3-19.5-11.7-6.5-41 13.8-19.6 19.7 9.7-.7 11.5 4.7 11.5 12.5 7 16.7-11.8 10.8-21.7 10.3-24.6 1.6-14.4 26.2 5.4 27-6.6 37.7 26.4 37.8 20.7.3z" transform="translate(-159.9 -38.8)"/>
  <path class="cls-10" d="M383.4 198.7c1 2.7.5 5.3-.2 8l-.3.4.2-.4 3.5-.3c1.2 42.6-68.4 18.1-26.7-10.6l3-2.7h2l-1.2 7.5 1.9.8 5-8.5h2.2c2.8 8.8 4.2 9.6 10.6 5.8z" transform="translate(-159.9 -38.8)"/>
  <path class="cls-15" d="M365 193h-2.2l-2.9 2.8c-1.6.2-3.3.7-5 1l-1.3-1.4c6.6-7.4 14.6-7.3 23.1-4-3.7 2-7.8 1.5-11.8 1.7z" transform="translate(-159.9 -38.8)"/>
  <path class="cls-5" d="M372.7 192.9l4-1.4 6.7 7.2c-6.4 3.8-7.8 3-10.7-5.8z" transform="translate(-159.9 -38.8)"/>
  <path class="cls-15" d="M351.5 203.5l-2.1 1.6 4-9.6 1.5 1.4z" transform="translate(-159.9 -38.8)"/>
  <path class="cls-5" d="M383.2 206.7l1-4.6 2.4 4.2-3.5.4z" transform="translate(-159.9 -38.8)"/>
  <path class="cls-15" d="M482 123.4c-19.7 1.1-36.9 10-52.7 18.2 13.1-13.6 33.6-22.5 52.6-18.2zM427.5 143.5l-6 9.6 6-9.6zM429.1 141.8l.3 1.6h-1.8z" transform="translate(-159.9 -38.8)"/>
  <path class="cls-1" d="M417.1 217.4l3.1 4.7-3-4.7z" transform="translate(-159.9 -38.8)"/>
  <path class="cls-13" d="M366.1 374.6l1.7.3-4.8 26-.2-.2c-5.4-6.8 2.8-17.8 3.3-26.1z" transform="translate(-159.9 -38.8)"/>
  <path class="cls-6" d="M360 411.6c-1.6 8.8-4.7 17.4-4.7 26.5-2.4-7.5-1.4-21.6 4.8-26.5z" transform="translate(-159.9 -38.8)"/>
  <path class="cls-21" d="M295.6 426.8zM279.2 227.2c3.4 1.3 7.2 6.8 10.2-.5-.6-7.8-3.5-12-7.2-20-4.7 7.6-14.1 16.3-3 20.5zM352 405c2.5-10.9 3.2-22.8 10.8-31.7-4.2-3-15.6-12.1-20.4-15.6-2.8-2.4-9-4-6-8.6l-.3-.2-3.5.8-9.5-15.1.4-3.1-5.1-8.9c1.9-3.3 3.3-4 5.5 0 10.8 23.7 29.1 37.5 52.8 47-6.6-16-28.9-15.6-37-30.9-1.2-.3-2.3-.9-3.5-1.2-5.8-12-14.2-23.1-16.5-36.5a2.2 2.2 0 01-.9.5l-1.3-1.1c-3.9-22.5-19-39.5-25.2-61.3-4-1.9-7-.8-9.2 3 1.8-9.8-7.3-11.5-11.6-17.1-15.9 15-15.3 35.6-19.1 55.6l-4.6-3.6a385 385 0 002.9 83.8c2.4 3.6 5.7 7 3 12l4.6 1.7c15 35.2 45 66.3 85.2 69.2 3.9-12.4 4.7-26 8.4-38.8z" transform="translate(-159.9 -38.8)"/>
  <path class="cls-3" d="M377 372.9a62.3 62.3 0 01-38.8-22.5l-1.9-1 .2-.3-.4-.2c-6.2-8.6-12.8-16.9-17.7-26.3 6.7-7.7 16.9 22 23.2 27.2l.2.2 2 2.6 33 17z" transform="translate(-159.9 -38.8)"/>
  <path class="cls-12" d="M367.8 350.9l8.9 3zM379 433.8c-1 2.8-1 6.5-2.7 8.7-24.5 9.7-23.4-5.7-17.9-24.3 3.7-14.2 7-28.7 9.4-43.3l12.7 3.2c.7-1 1.2-2.4-.5-2.7a33.3 33.3 0 00-3.7-1.6c2.4-5.6-3.9-10.4-7.3-14a136.7 136.7 0 0017.3 1.5c9.2 1 34-6.7 27.4 10.6.3-.8-4.4.4-4.7.5-8 1.6-16.8-1-25 1.3 9 4.5 2.9 19.7 1.7 27.5-3.4 10.7-2.3 22.2-6.8 32.6z" transform="translate(-159.9 -38.8)"/>
  <path class="cls-21" d="M339.7 338.7a1 1 0 01-.8-.2l.7-.3z" transform="translate(-159.9 -38.8)"/>
  <path class="cls-7" d="M400 436.4c-2-6.9-3.5-10-8.5-16.4l10.3-42.3c17.6-1.2 35.5-3.7 52-9.9 3.7-.5 6.3-7.8 11.2-2 6.9-1.4 9-12 18.3-8 4.6-2.2 9.4-15 16.8-7.4 4.7-10.2 13.7-4.2 23.1-4.7 26.1 7 1.3 30.5-5.7 45.5-29.3 32.8-76.1 43.2-117.5 45.2z" transform="translate(-159.9 -38.8)"/>
  <path class="cls-11" d="M478.2 451.7l-22.4-9c8.8-4.8 15.7-8.2 23-12.5l6-3.4 3.4-2.7h-.1c8.1-4.5 14.3-11.5 21.7-17 7-11.2 18.6-18.3 28.8-26.2-11.1 30.3-34.1 53.2-60.4 70.8z" transform="translate(-159.9 -38.8)"/>
  <path class="cls-3" d="M499.8 416.1l-11.7 8.1c1.1-2 3-3.9 3.3-6.3l-.5 1.3c-32.4 17.7-63.4 28.6-100.2 26 8.7-13.4 20.6-9.7 34.3-10.4 30.9-3.6 58.1-16.1 83-33.7-1.2 2.8-4.2 5.2-.4 7.3l-6 6c-1.7-5.2-7-1-6 1.8zM517.4 339h-22.6c5.8-18.5 24.9-28.2 41-16.7-4.4 9.5-15 10.5-18.4 16.8zM548 333c5.6 19 3.9 39-17.7 47.8 6.9-12 14.7-23 4-35.5z" transform="translate(-159.9 -38.8)"/>
  <path class="cls-13" d="M548 333l-13.7 12.3c-5.5-2.8-10.4-7.3-16.9-6.2 3.3-6.2 14-7.4 18.3-16.8 6.6.8 8.4 7 12.3 10.8z" transform="translate(-159.9 -38.8)"/>
  <path class="cls-9" d="M566.4 342.1l-8.6 9.8-2-9.7 2 5.3z" transform="translate(-159.9 -38.8)"/>
  <path class="cls-3" d="M496.3 342.2l-1 .7c-.6-.7.2-.8.6-1.3z" transform="translate(-159.9 -38.8)"/>
  <path class="cls-11" d="M555.8 359.8l-1.4 3.8 1.4-3.8z" transform="translate(-159.9 -38.8)"/>
  <path class="cls-3" d="M520.1 339l3.3.2z" transform="translate(-159.9 -38.8)"/>
  <path class="cls-7" d="M487.7 353.3l-.5-.5.8.2z" transform="translate(-159.9 -38.8)"/>
  <path class="cls-3" d="M514.5 401l-1.8 1.9zM509.8 407.3z" transform="translate(-159.9 -38.8)"/>
  <path class="cls-9" d="M577.2 330l1.5 1.5-12.4 10.7z" transform="translate(-159.9 -38.8)"/>
  <path class="cls-15" d="M543.6 311a.5.5 0 01.3-.8l.1.5z" transform="translate(-159.9 -38.8)"/>
  <path class="cls-12" d="M689.8 177.5l10.7-9.3-10.8 9.2zM700.5 168.2l6-9 1.6 1.1-7.6 8zM696 194.4l-4.7 4.4zM698.5 192.3l2.3-2.9 1 .7-2.4 3a25 25 0 01-1-.8zM689.7 177.4l-.7 2.5-1-.6 1.8-1.8z" transform="translate(-159.9 -38.8)"/>
  <path class="cls-12" d="M699 194.7l-3-.2 2.5-2.2.9.9-.4 1.5z" transform="translate(-159.9 -38.8)"/>
  <path class="cls-7" d="M526.1 454.7c9.4-8.9 23.2-12.2 32.7-21.4-8.4 10-14.2 22.8-26 29.1l-6.7-7.7z" transform="translate(-159.9 -38.8)"/>
  <path class="cls-14" d="M526.1 454.7c3.6 4 8.3 7 5.3 12.7-.8 2.2 1.7 3.6 1.4 5.6a9 9 0 00-2 6.7c.7 3.6 5 5.4 7.4 7.7-4.3 9 8.2 16.3 2.5 25.6-.7 1.2 2.1 4.6 3.6 7.4l-5.5 3.6a11.4 11.4 0 01-1.3-.2c-2.2-25-14.8-44.7-28.6-65.2z" transform="translate(-159.9 -38.8)"/>
  <path class="cls-12" d="M121.9 436.8l-.5.1v-.4l.5.3z"/>
  <path class="cls-1" d="M390.7 445.3c13.8.3 28.4-3.6 41.7.2l-46 1.5 1.5-1.7z" transform="translate(-159.9 -38.8)"/>
  <path class="cls-15" d="M378.5 383.5l3.6 4.9-3.8 7.5-7.5-2.9c-2.5-9-2.5-9 7.7-9.5z" transform="translate(-159.9 -38.8)"/>
  <path class="cls-3" d="M484.6 427l-5.8 3.2zM488.2 424.2l-3.4 2.6zM478.8 430.2l-1.4 1z" transform="translate(-159.9 -38.8)"/>
  <path class="cls-1" d="M497.3 202.3c-2.8 9.9-16.4 9.1-24.8 12.1-6.8-1.2-13.5-8.8-18.7 0-20.1.5-33.5-25-7.4-27.1 7.2-.9 24 7 23.1-5.2h1.4l2.8 6c23.7-17.9 55-15.4 23.6 14.2 1.8-13.5.6-14.8-9.1-11l2.6 10zm-34.1-3.4c3.7 2 4.2 1.6 4.5-5.9-11-3.1-11.7-2.6-21.2 14.3 11 2.6 9.5-2.7 16.7-8.4z" transform="translate(-159.9 -38.8)"/>
  <path class="cls-3" d="M471 182h-1.5c-2.5-26.4-9.4-10-20.8-23.1 3.5-25.7 57.5-13.3 22.2 5.3zm-9-19.7l.7 1.2c5.6-3 17.2-5.1 16.8-12.8-8.1-11.6-42.2 11.6-17.4 11.6zM467.5 213l5 1.4c5.7 37.6-27.4 37.4-20.7-.2l2 .2c-.9 32.6 19.4 30.5 13.7-1.3z" transform="translate(-159.9 -38.8)"/>
  <path class="cls-5" d="M365 193l5.5-.1-5 8.4-1.8-.8 1.2-7.4zM351.5 203.5l3.4-6.6 5-1.1zM359.9 195.8l2.9-2.7z" transform="translate(-159.9 -38.8)"/>
  <path class="cls-5" d="M223.2 167.8l-.2.4.3-.3-.1-.1z"/>
  <path class="cls-13" d="M343.7 352.6l-2-2.6 2 2.6z" transform="translate(-159.9 -38.8)"/>
  <path class="cls-4" d="M499.8 416.1l-4.1.1-.1-1.7c2-2.2 3.9-4.6 6-.2z" transform="translate(-159.9 -38.8)"/>
  <path class="cls-1" d="M490.9 419.2l.5-1.3-.3 1.5zM495.6 414.6l.1 1.6c-.3-.6-.8-1.1-.1-1.6z" transform="translate(-159.9 -38.8)"/>
  <path class="cls-19" d="M531.1 468.7l-1.8 2-1.2-1.6 2.9-.6z" transform="translate(-159.9 -38.8)"/>
  <path class="cls-20" d="M467.5 213c5.7 32-14.6 33.9-13.7 1.4l.2-.3c3.7-5.7 9-4.5 13.5-1z" transform="translate(-159.9 -38.8)"/>
  <path class="cls-14" d="M463.2 199c-7.2 5.6-5.8 11-16.7 8.3 9.5-16.9 10.2-17.4 21.2-14.3-.4 7.4-.7 7.8-4.4 6l2-3.3-1.2-.6-1 3.8zm-3-4c-.5.5-1.3.6-.6 1.3.4-.4 1.2-.6.6-1.2z" transform="translate(-159.9 -38.8)"/>
  <path class="cls-3" d="M497.3 202.3l-6.5-1-2.6-10c9.7-4 10.9-2.5 9 11zM454.9 213l-.9 1a1.7 1.7 0 01.9-1z" transform="translate(-159.9 -38.8)"/>
  <path class="cls-20" d="M462 162.3c-24.7 0 9.4-23.2 17.5-11.6.4 7.7-11.2 9.8-16.8 12.8z" transform="translate(-159.9 -38.8)"/>
  <path class="cls-1" d="M463.2 199l1-3.8 1 .5-1.9 3.3zM460.2 195c.6.7-.2.9-.6 1.3-.7-.7.1-.8.6-1.2zM989.8 277.7c2.9 40.2-14.1 64.8-35.7 95.6-22.5 18.4-47.9 36.4-77.7 38.3-7.2-.7-18.5 5.9-21.8-4 157.2 2.2 175.7-218 24.1-247.6-68.7-9.9-120.7 28.3-143 92.2l-15.7-8.4c13.8 1 15.4-10.6 20.3-19.3 6.2-10.8 12.5-21.9 20.5-31.4 16.1-19.9 40.7-29.2 64.5-37.2 11.1-1.2 23.4-7.1 34.3-3.3 19.8-5.5 39.4 4.3 57.5 11.4 7.6.8 12.9 6.3 19 10.5l3.1 3c30.5 23.5 50 61.5 50.6 100.2z" transform="translate(-159.9 -38.8)"/>
  <path class="cls-8" d="M645.5 208.7a4.9 4.9 0 00-2.6 2 22 22 0 01-2 2l-4.5 4.2c-4.3 4.1-8.6 8.2-13.1 12.1-4.3 3.7-8.5 7-13.8 1.2-1.1-1.2-3.7-1.6-5.6-1.6-7.9.2-15.8.8-23.7 1.2 1.7 1 3.3 2.8 5 3 5.4.4 11 0 16.4.4 1.7.2 3.4 1.7 5 2.5l7.5 3.1c-10.5 10-20.5 19.2-30.2 28.6-6 5.9-11.8 12-17.6 18l2 1.6 22.7-21c1.8-1.5 4-2.6 6-3.9 1.3-.8 2.5-2.4 3.5-3.5l3.5-3.6 7-7.2 18-18.5 3.4-3.6a44.8 44.8 0 013.4-3.5 97.8 97.8 0 009.6-8.9c.8-.8 3-3 1.6-4.1a1.8 1.8 0 00-1.5-.5z" transform="translate(-159.9 -38.8)"/>
  <path class="cls-8" d="M652.8 212.8c-12.3-23.4-30.8-26.6-56.5-23.6l-.5-2.5c8.3-2.4 16.5-5 24.8-7.1l-.2-4-15.3 3.3h-1a6.8 6.8 0 01-1 .2l-13.8 7.2.3 1.9.8 1-.8-1-5 1.3-5 1.8c6.3 7.5 14 4.8 20.6 4 13-1.7 26.6-.6 37.3 7.3a15.4 15.4 0 015 3.4c1.8 1.3 3.6 2.5 4.6 4.5l.7 2 6.3 16.4-2.7 14.9-7.9 23.1c-.2 3.3 1 6.2 2.1 9.3a61 61 0 01-23.9 70.4c-3.5 2.3 8.3 1.3 12.4 2-.4-1.6-1.7-4-1.1-4.5 5.8-5.4 11.9-10.6 18-15.8l1.3-3c-.6-1.9-2.4-4.2-1.8-5.7 7-18.4-.4-37 2.4-55.4 1.4-9 4-17.9 6.1-27 .6-.1 1-.5 1.6-.7 2.7 4.7 5 9.5 8.1 14 4.8 7 7.8 15.8 17.6 17.9-11.2-18.5-22.8-36.8-33.5-55.6z" transform="translate(-159.9 -38.8)"/>
  <path class="cls-10" d="M872 151.3l-3.6-.7" transform="translate(-159.9 -38.8)"/>
  <path class="cls-4" d="M840.7 152.7l-14 3.1z" transform="translate(-159.9 -38.8)"/>
  <path class="cls-14" d="M959 196l-2.9-3zM963.9 202.2l-3-3.2z" transform="translate(-159.9 -38.8)"/>
  <path d="M939.2 177.5l-3.1-3z" transform="translate(-159.9 -38.8)" fill="#372135"/>
  <path class="cls-4" d="M857.8 151.7l1.8 1z" transform="translate(-159.9 -38.8)"/>
  <path class="cls-3" d="M623.4 179.2l-2.8.4-.2-4 4.6-1z" transform="translate(-159.9 -38.8)"/>
  <path class="cls-24" d="M852.5 374.5c-.7-4.4-1.8-8.7-2.2-13.1-.5-5.1-.4-10.2-.5-15.4-.2-11.7-.2-11.6-11.2-14.7-6.8-1.9-11.8-.7-14.9 6.5-2.4 5.4-5.9 10.3-8.9 15.5l-2.4-.8c.2-2.5-.3-5.3.7-7.4 8.9-18.7 18-37.3 27.2-55.8a23.3 23.3 0 014.7-6c4.2-4.1 8.4-3.4 9.8 2.3a103 103 0 013.4 22.7c.3 19.3-.1 38.7-.6 58.1 0 2.8-1.7 5.5-2.7 8.2zm-20.1-51.9l17 3.6-2-25.8-1.6-.5zM844.3 179.1l.9 10.8c1.1 14.8 2 29.6 3.5 44.3a26.3 26.3 0 004.2 11.5c1.7 2.6 5.6 5.8 7.9 5.4 3.4-.7 8.4-4 8.8-6.8 2.1-12.6 3.1-25.3 4-38 .6-8 .1-16 .1-23.9l2.2-.5c1.2 2.3 3 4.5 3.4 6.9 3.3 19.4 6.8 39 1.3 58.6-3 10.9-8.5 16.3-16.7 16.3-11.9 0-19.9-5.5-22.6-16.8a145.2 145.2 0 01-1.2-61.7 57.5 57.5 0 011.9-6.2zM777.3 214.7c3.2-.8 6.4-2.2 9.7-2.5q18.4-1.6 36.8-2.5c2.3 0 4.6 1.4 7 2.2-.8 2.3-1 5-2.5 6.8-8.5 10.2-17.3 20.2-26 30.3l-10.8 13.2 31.3-3.8a89.3 89.3 0 0112.2-.5 4.2 4.2 0 013 2.7c.2.8-1.4 2.8-2.5 3-17.8 3.3-35.6 6.9-53.6 9.4-6.6 1-9-4.8-4.5-11 6-8.2 13-15.8 19.8-23.4 6-6.8 12.4-13.2 20.3-21.5h-39.9l-.3-2.4zM793.7 301.3v30.5c.2 10.2.7 20.4.8 30.7 0 2.5-1.2 5.1-1.9 7.7h-3c-1.4-4.4-3.7-8.7-4.2-13.3-1.5-14.7-2.6-29.5-3.6-44.3-.7-11.9-.6-11.9-12.1-13.3a4.6 4.6 0 01-1.5-.3l-8.7-4.6c3-1.1 6-3 9-3.2 12.6-.7 25.1-.9 37.7-1.2 1.8-.1 3.9-.7 5.3 0 2.8 1.5 5.2 3.7 7.8 5.6-2.6 1.9-4.9 5-7.6 5.4-5.7.9-11.7.3-18 .3zM903.8 320c.5-9 .6-15.7 1.4-22.2.4-2.5 2.6-4.8 4-7.2 1.4 2.1 4.1 4.2 4.2 6.4.4 12 .4 24-.1 36-.2 4.6-5.4 5.9-9.3 2.2-4.6-4.4-8.8-9.3-13.2-13.9-2.6-2.7-5.4-5.1-8.9-8.4-2.6 15.8-.5 31-4.8 45.2l-2.5.1c-.5-2-1.4-3.9-1.5-5.9-.4-16.1-.8-32.2-.7-48.3 0-2.7 2.2-5.4 3.5-8 2.7 1.4 6 2.2 8.1 4.3 6.3 5.8 12.2 12 19.8 19.7zM932.5 213c-2.3-1.3-4.2-3.2-6-3.2-4.6 0-10.3-.3-13.3 2.1-2.6 2.2-3.8 8.7-2.5 12.1a47.8 47.8 0 0010.5 14.7 26 26 0 014.2 31.7c-7 11.1-21.7 17-32.6 13.3-8.7-3-12.4-8.8-11.3-17.2l3.1-3.1c.7 2.2.8 5 2.3 6.6 7.5 8.1 16.3 7.9 25-.2 8-7.5 8.3-16.4 1-24.3a46 46 0 00-4.9-4.9c-13.6-10.8-6.5-30.7 4-37.8 9-6.1 19.4-1.3 20.5 10.1zM922.5 347.9l4.7-55c.5-6.8 3-8 8.9-4.2 11.4 7.7 20 17.5 18.6 32.1a38.8 38.8 0 01-22.7 34c-2.4 1-6.1 2.2-7.7 1-2-1.2-2.3-5-3.4-7.5zm10.3-5.5c16-10.8 17.2-36.7 0-45.5z" transform="translate(-159.9 -38.8)"/>
  <path class="cls-16" d="M773 315.4l-15.9 11c0-7.9 5.2-11.4 15.9-11zM835.6 364l-10.2 19.4c-3.2-6.6.9-14 10.2-19.4zM956 229l-16 11-1.4-2 15-12.2zM845.3 379.6l-3.7 16.1-3.7-.9 4-16.1zM902.2 354.2l8.4 16.7-3.8 1.7L900 355zM892.5 368.2l4.2 16.6-3.6.8-3.3-16.7zM964.8 254.7l-17 5-.9-2.5 16.6-6.5 1.3 4zM773.8 246l-15.6-10.6 2.2-3 14.8 12zM901.4 182.4l-4.8 15.8-2.7-.7 3.5-16.2zM821.2 197l-8.4-12.8 3.4-2 7.3 13.5zM953.2 285.1l-12-11.5 1.6-1.8 12.6 10.8z" transform="translate(-159.9 -38.8)"/>
  <path class="cls-15" d="M832.4 322.6l13.4-22.7 1.7.5 1.9 25.8zM932.8 342.4v-45.5c17.2 8.8 16 34.7 0 45.5z" transform="translate(-159.9 -38.8)"/>
  <path class="cls-15" d="M655.9 189.7l16.7 12.5 6 10.3c8.2 13.6 17.4 26.1 34 30.4l6.8 2.2.6-1.3c5 2.6 9.9 5.2 15.6 8.4 1.5-3.6 2.8-7.2 4.5-10.5 6.3-12 11.7-24.5 19.4-35.5 16.2-22.8 39.7-35.6 65.9-43.8 17.6-3.5 35.3-5.5 53.3-2.4 31 5.3 56.3 20.8 76.2 44.9 28 34 36 73 23.8 114.9a120.4 120.4 0 01-98.2 85.6c-4 .6-8 1.5-12 2.3l-9.3-.1h-4.6c-8-1.2-16.2-1.8-24-3.8a125.2 125.2 0 01-65.9-39.4c-3.5-4.1-7.5-7.8-11.4-11.6a21 21 0 00-1.2-4.2c-3.2-6-7.6-11.5-9.5-17.8-4.2-13.6-7-27.5-10.6-41.3-.3-1.5-1-3.7-2.2-4.1-5.5-2.4-11.3-4.2-17-6.2l-3-1-23.6-9.9c-11.2-18.5-22.8-36.8-33.4-55.6-12-21-27.1-27.2-52-23.6a31.8 31.8 0 01-4.6 0l-.5-2.5 16.1-4.8 8.7-2.3 2.8-.4zm196.6 184.8h2.4c1-2.6 2.7-5.3 2.7-8 .4-19.5.9-38.9.6-58.2a103 103 0 00-3.4-22.7c-1.4-5.7-5.6-6.4-9.8-2.3a23.3 23.3 0 00-4.7 6c-9.2 18.5-18.3 37.1-27.2 55.8-1 2-.5 4.9-.7 7.4l2.4.8c3-5.2 6.5-10.1 9-15.5 3-7.2 8-8.4 14.8-6.5 11 3 11 3 11.2 14.7 0 5.2 0 10.3.5 15.4.4 4.4 1.5 8.7 2.2 13zM844.3 179l-2.3-.1a57.5 57.5 0 00-2 6.2 145.2 145.2 0 001.3 61.7c2.7 11.3 10.7 16.9 22.6 16.8 8.2 0 13.7-5.4 16.7-16.3 5.4-19.7 2-39.2-1.3-58.6-.5-2.4-2.3-4.6-3.4-6.8l-2.2.5c0 7.9.4 15.9 0 23.8-1 12.7-2 25.4-4 38-.6 2.8-5.6 6-9 6.8-2.2.4-6.1-2.8-7.9-5.4a26.3 26.3 0 01-4.1-11.4c-1.5-14.8-2.4-29.6-3.6-44.4l-.8-10.8zm-67 35.6c0 .8.2 1.6.3 2.3h39.9c-7.9 8.3-14.3 14.8-20.3 21.6-6.8 7.6-13.7 15.2-19.8 23.4-4.6 6.2-2 12 4.5 11 18-2.6 35.8-6.1 53.6-9.5 1-.2 2.7-2 2.5-3a4.2 4.2 0 00-3-2.7 89.3 89.3 0 00-12.2.6c-9.8 1-19.5 2.3-31.3 3.7l10.8-13.1c8.7-10.2 17.5-20.1 26-30.3 1.5-1.8 1.7-4.6 2.4-6.9-2.3-.7-4.6-2.2-6.9-2.1q-18.4.8-36.8 2.4c-3.3.4-6.5 1.8-9.7 2.6zm16.4 86.6c6.2 0 12.2.6 18-.3 2.7-.4 5-3.5 7.6-5.4-2.6-2-5-4.1-7.8-5.6-1.4-.7-3.5-.1-5.3 0-12.5.3-25 .5-37.6 1.2-3 .2-6 2.1-9 3.2l8.6 4.6a4.6 4.6 0 001.5.3c11.5 1.4 11.4 1.4 12.1 13.3 1 14.8 2 29.6 3.7 44.3.4 4.6 2.7 9 4.1 13.4l3-.1c.7-2.6 2-5.1 1.9-7.7 0-10.3-.6-20.5-.8-30.7v-30.5zM903.8 320c-7.6-7.6-13.5-14-19.8-19.7-2.2-2-5.4-3-8.1-4.3-1.2 2.6-3.5 5.3-3.5 8 0 16 .3 32.2.7 48.3 0 2 1 4 1.5 6l2.5-.2c4.4-14.2 2.2-29.4 4.8-45.2 3.5 3.3 6.3 5.8 8.9 8.4 4.4 4.6 8.6 9.5 13.2 14 3.9 3.6 9.1 2.3 9.3-2.3.5-12 .5-24 .1-36 0-2.2-2.8-4.3-4.2-6.4-1.4 2.4-3.6 4.7-4 7.2-.8 6.5-.9 13.2-1.4 22.2zm28.7-107c-1.1-11.5-11.5-16.3-20.5-10.2-10.5 7.1-17.5 27-4 37.8a46 46 0 014.8 5c7.4 7.8 7 16.7-1 24.2-8.6 8.1-17.3 8.3-24.8.2-1.5-1.5-1.6-4.4-2.4-6.6l-3 3c-1.2 8.5 2.6 14.2 11.3 17.3 10.9 3.8 25.5-2.2 32.5-13.3a26 26 0 00-4.2-31.7 47.8 47.8 0 01-10.4-14.7c-1.4-3.4-.2-10 2.4-12 3-2.5 8.7-2.1 13.3-2.2 1.8 0 3.7 1.9 6 3.1zm-10 135l-1.6.3c1 2.7 1.5 6.3 3.4 7.7 1.6 1 5.4 0 7.7-1.2a38.8 38.8 0 0022.8-33.9c1.3-14.7-7.3-24.5-18.7-32-5.8-4-8.3-2.7-9 4l-4.6 55zM773 315.3c-10.7-.4-15.9 3.1-15.9 11zm62.6 48.6c-9.3 5.4-13.4 12.8-10.2 19.4zm120.5-135l-2.4-3.2-15 12.2 1.5 2zM845.3 379.6l-3.4-1-4 16.2 3.7 1 3.7-16.2zm56.9-25.4l-2.2 1 6.8 17.4 3.8-1.7zm-9.7 14l-2.7.7 3.3 16.7 3.6-.8zm-122.2-87.6c-10-6.7-13.8-7.5-20-3.5zm194.5-26l-1.3-3.9-16.6 6.5.9 2.5zm-191-8.6l1.3-1.7-14.7-12-2.2 3zm127.6-63.6l-4-1.1-3.5 16.2 2.6.7 5-15.8zM821.2 197l2.3-1.4-7.4-13.6-3.3 2 8.4 13zm132 88l2.2-2.5-12.6-10.9-1.7 1.9z" transform="translate(-159.9 -38.8)"/>
  <path class="cls-3" d="M744.4 349a34.3 34.3 0 013 4 24.8 24.8 0 012.7 3.8l1.2-.7 2-3.2a21 21 0 00-1.2-4.2c-3.2-6-7.6-11.5-9.5-17.8-4.2-13.6-7-27.5-10.6-41.3-.4-1.5-1-3.7-2.2-4.2-5.6-2.3-11.3-4.1-17-6.1l4.5 9c12.3.1 11.3.3 13.1 10.2 2.2 12.1 6 24 9.3 36 1.4 4.8 4.3 9.6 4.6 14.5z" transform="translate(-159.9 -38.8)"/>
  <path class="cls-16" d="M770.3 280.6l-20-3.5c6.2-4 10-3.2 20 3.5z" transform="translate(-159.9 -38.8)"/>
</svg>
